<svg width="406" height="425" viewBox="0 0 406 425" fill="none" xmlns="http://www.w3.org/2000/svg">
<g opacity="0.8">
<mask id="mask0_4_3" style="mask-type:alpha" maskUnits="userSpaceOnUse" x="0" y="0" width="406" height="425">
<rect width="405.421" height="424.018" fill="#D9D9D9"/>
</mask>
<g mask="url(#mask0_4_3)">
<g opacity="0.35">
<g clip-path="url(#clip0_4_3)">
<path d="M412.303 145.102C404.391 116.878 389.965 90.9341 370.201 69.3833C358.261 56.7894 344.718 45.8401 329.925 36.82C320.299 30.8384 310.672 23.6896 299.537 20.9468C281.934 16.4715 263.534 16.2017 245.808 20.1589C227.569 24.419 211.534 34.3981 196.311 45.0775L190.251 49.4251C173.524 61.4092 158.381 75.4895 145.191 91.3257C106.336 138.652 78.4161 194.075 63.4512 253.588C57.652 275.91 49.2719 277.573 30.5694 268.674C-16.4913 246.235 -59.7243 220.237 -81.1814 168.941C-85.0089 159.808 -90.4022 150.442 -102.987 155.723C-116.528 161.413 -115.861 171.946 -110.439 183.093C-105.963 193.15 -100.829 202.898 -95.0707 212.271C-66.0746 255.747 -23.7691 281.95 23.2336 300.508C43.9079 308.648 49.8518 319.153 47.967 341.358C43.6466 392.625 44.6326 444.183 54.2593 494.983C68.0325 567.638 85.9811 639.009 142.321 692.144C199.182 745.774 277.848 731.126 312.76 661.039C325.779 634.778 335.957 607.292 348.57 580.856C354.572 568.222 357.472 555.938 342.974 549.81C329.055 543.974 324.619 558.418 319.574 567.317C302.176 598.101 290.955 632.269 269.237 660.689C243.14 694.916 208.664 700.168 173.114 676.154C153.339 662.761 139.45 644.232 129.388 622.99C91.6934 543.099 75.4264 458.423 78.036 370.361C79.4568 322.362 80.6169 323.325 128.982 331.933C212.433 346.814 294.26 347.981 365.765 291.842C414.246 253.793 429.382 204.481 412.303 145.102ZM337.754 271.183C298.233 298.553 253.666 308.065 205.329 305.847C174.419 307.686 143.567 300.741 112.541 294.847C96.0427 291.696 87.3728 286.356 93.346 265.668C112.947 197.449 143.451 135.969 195.702 87.2115C251.346 35.3027 305.888 40.9049 354.398 102.209C402.909 163.514 396.066 230.741 337.754 271.183V271.183Z" fill="#DBDED9"/>
<path d="M200.834 433.97C199.82 443.658 195.035 450.34 184.916 449.96C183.1 449.976 181.298 449.63 179.616 448.942C177.933 448.254 176.403 447.238 175.112 445.953C173.821 444.667 172.795 443.138 172.094 441.452C171.393 439.766 171.03 437.957 171.026 436.13C170.243 426.034 175.608 419.235 184.944 418.302C194.89 417.164 200.052 423.933 200.834 433.97Z" fill="#DBDED9"/>
</g>
</g>
</g>
</g>
<defs>
<clipPath id="clip0_4_3">
<rect width="533.122" height="707.203" fill="white" transform="translate(-114.063 17.3575)"/>
</clipPath>
</defs>
</svg>
