<svg width="48" height="49" viewBox="0 0 48 49" fill="none" xmlns="http://www.w3.org/2000/svg"><g clip-path="url(#clip0_178_28)"><path d="M37.9934 0.701904H10.4768C4.95396 0.701904 0.476807 5.17906 0.476807 10.7019V38.2185C0.476807 43.7414 4.95396 48.2185 10.4768 48.2185H37.9934C43.5163 48.2185 47.9934 43.7414 47.9934 38.2185V10.7019C47.9934 5.17906 43.5163 0.701904 37.9934 0.701904Z" fill="#2C9BDA"></path><path d="M11.7732 28.3483V28.3703C11.5221 28.3703 11.2702 28.3791 11.0198 28.3673C10.7174 28.3541 10.4743 28.2216 10.4399 27.8985C10.4033 27.5542 10.6061 27.2927 10.9319 27.27C11.5887 27.2238 12.2521 27.2304 12.911 27.2531C13.16 27.2612 13.3203 27.4634 13.3269 27.7212C13.3357 28.0736 13.1087 28.2889 12.7961 28.3366C12.4622 28.3878 12.1144 28.3483 11.7732 28.3483Z" fill="white"></path><path d="M10.3927 25.9987C10.1709 25.998 9.93291 26.0624 9.73376 25.8983C9.41892 25.7928 9.38744 25.5482 9.47969 25.2911C9.58366 25.0017 9.83846 24.8794 10.1328 24.875C10.8196 24.864 11.5064 24.8662 12.1939 24.8662C13.2929 24.8654 14.3919 24.8669 15.4916 24.8662C15.7896 24.8662 16.0569 24.9468 16.1389 25.261C16.2172 25.5628 16.0942 25.7958 15.7764 25.8947C15.5773 26.0558 15.3408 26.0009 15.1175 26.0009C13.5426 26.0045 11.9676 26.0045 10.3927 25.9987Z" fill="white"></path><path d="M13.275 23.171C13.2977 22.7894 13.5539 22.6033 13.9149 22.5945C14.5534 22.5792 15.1918 22.5901 15.831 22.5901V22.5872C16.4241 22.5872 17.0172 22.5909 17.6102 22.5857C17.9492 22.5828 18.2187 22.7037 18.2421 23.0619C18.2663 23.4326 18.0298 23.6904 17.6681 23.697C16.3684 23.7212 15.0681 23.7161 13.7677 23.7051C13.447 23.7029 13.2559 23.4941 13.275 23.171Z" fill="white"></path><path d="M20.4827 32.3551C19.4745 32.3646 18.6208 33.1638 18.6391 34.0802C18.6552 34.8772 19.3215 35.4683 20.1986 35.4647C21.2083 35.4596 22.0869 34.6713 22.0855 33.7703C22.0855 32.9579 21.3921 32.347 20.4827 32.3551ZM20.3048 34.6963C19.8406 34.645 19.506 34.4479 19.5133 33.9842C19.5221 33.4414 19.8875 33.1799 20.4051 33.1557C20.892 33.133 21.22 33.3865 21.2003 33.8758C21.1776 34.4157 20.7705 34.6281 20.3048 34.6963Z" fill="white"></path><path d="M30.6908 24.2743C30.4338 26.6404 30.1973 29.0087 29.9543 31.3762C29.8481 32.4091 29.2418 33.0061 28.2109 33.0178C26.5401 33.0369 24.8685 33.0215 23.1977 33.0259C22.7811 33.0274 22.456 32.8787 22.177 32.5615C21.2728 31.5337 19.9673 31.4473 18.9869 32.4025C18.5008 32.8765 17.9809 33.0559 17.3249 33.034C16.4558 33.0047 15.5852 33.0237 14.7154 33.0281C14.3215 33.031 13.9195 32.9812 13.918 32.4963C13.9166 32.0084 14.3002 31.8663 14.7337 31.8656C15.6269 31.8634 16.5195 31.8656 17.4127 31.8641C17.595 31.8641 17.7803 31.8721 17.9604 31.848C18.3228 31.7982 18.5659 31.5909 18.5542 31.2143C18.5418 30.8085 18.2489 30.6964 17.8865 30.6972C16.7186 30.6994 15.5515 30.6972 14.3837 30.6964C13.9034 30.6964 13.4223 30.6906 12.9413 30.6979C12.5225 30.7045 12.0876 30.6547 12.1154 30.1287C12.1403 29.657 12.5386 29.5427 12.975 29.5449C14.9211 29.5537 16.8665 29.5507 18.8127 29.5493C19.1099 29.5493 19.4094 29.5581 19.7045 29.5258C20.0852 29.4833 20.3715 29.2892 20.3415 28.8651C20.3129 28.4607 20.0112 28.367 19.6517 28.3684C18.1413 28.3728 16.63 28.3684 15.1188 28.3699C14.7425 28.3706 14.3976 28.2922 14.3954 27.8373C14.3932 27.4154 14.7029 27.2557 15.0837 27.2249C15.2433 27.2125 15.4044 27.2205 15.5647 27.2205C17.0525 27.2205 18.5403 27.2213 20.0288 27.2213C20.1657 27.2213 20.3034 27.2191 20.4403 27.2213C20.8942 27.2301 21.3372 27.1055 21.3475 26.6015C21.3599 26.0345 20.8672 26.0404 20.4388 26.0426C19.569 26.047 18.6992 26.0433 17.8293 26.0433C17.4479 26.0433 17.1096 25.943 17.1308 25.4888C17.1499 25.0749 17.4574 24.9086 17.8462 24.9072C19.1736 24.9035 20.5018 24.9079 21.8292 24.905C22.0108 24.9042 22.2034 24.916 22.3703 24.8618C22.68 24.7607 22.8799 24.5292 22.844 24.19C22.8089 23.8626 22.5607 23.7293 22.2583 23.7249C21.5715 23.7139 20.8847 23.7146 20.1979 23.7197C19.8245 23.7219 19.4628 23.6648 19.457 23.2091C19.4519 22.7572 19.7733 22.585 20.1965 22.5858H24.8663C26.3087 22.5865 27.7511 22.5806 29.1935 22.588C30.3386 22.5938 30.8131 23.1564 30.6908 24.2743Z" fill="white"></path><path d="M34.0697 32.3606C33.0593 32.3533 32.1675 33.1591 32.1866 34.0609C32.2034 34.8637 32.8726 35.4703 33.7417 35.4703C34.7646 35.4695 35.6198 34.6872 35.6117 33.7583C35.6051 32.9437 34.9681 32.3672 34.0697 32.3606ZM34.7412 33.8638C34.7185 34.4103 34.3341 34.6271 33.8472 34.6967C33.4057 34.6528 33.0967 34.4704 33.0696 33.9979C33.0425 33.5195 33.4789 33.1349 34.0134 33.1547C34.4651 33.1716 34.7609 33.3987 34.7412 33.8638Z" fill="white"></path><path d="M23.6587 21.4995C23.8395 19.2953 24.9063 17.576 26.6855 16.3439C29.344 14.5023 32.201 14.1052 35.0961 15.7227C38.2906 17.5079 38.9825 21.7456 36.6585 24.582C36.2258 25.1109 35.7008 24.7768 35.1949 24.8274C35.9593 23.9366 36.5333 22.988 36.7881 21.865C37.4925 18.7525 35.1363 15.9175 31.7353 15.7637C27.9895 15.5937 24.7848 18.4792 24.7489 21.6247C24.7416 22.2445 24.2678 21.9514 23.9889 21.9961C23.5745 22.0621 23.6389 21.7471 23.6587 21.4995Z" fill="white"></path><path d="M37.3458 27.5708C37.3231 27.5312 37.2982 27.4932 37.2748 27.4536C35.7987 24.9849 36.6964 25.5065 33.9397 25.4413C33.2895 25.4413 32.7404 25.4523 32.192 25.4384C31.5279 25.4223 31.1875 25.7058 31.1223 26.3936C30.9414 28.3048 30.7284 30.2123 30.5219 32.1206C30.4597 32.6913 30.7042 32.9799 31.2731 33.029C31.7337 33.0678 32.0653 32.955 32.3926 32.5631C33.2778 31.5038 34.8527 31.4752 35.6347 32.44C36.0894 33.0011 37.0061 33.2289 37.6658 32.9469C37.9916 32.8077 38.1446 32.5557 38.1974 32.2107C38.4492 30.5615 38.1654 29.0149 37.3458 27.5708ZM36.5939 29.0044C36.0704 29.0212 35.5454 29.0088 35.0212 29.008C34.5196 29.008 34.0181 29 33.5165 29.011C33.0801 29.0205 32.8868 28.8403 32.941 28.3905C33.0164 27.7569 33.0692 27.1203 33.1351 26.4852C33.1746 26.1057 33.3789 25.9094 33.7713 25.9329C33.8167 25.9358 33.8628 25.9299 33.9082 25.9329C34.5152 25.9856 35.3118 25.6545 35.6918 26.0603C36.3127 26.724 36.7161 27.6104 37.1262 28.4447C37.3283 28.8549 36.9409 28.9927 36.5939 29.0037V29.0044Z" fill="white"></path><path d="M30.6908 24.2743C30.4338 26.6404 30.1973 29.0087 29.9543 31.3762C29.8481 32.4091 29.2418 33.0061 28.2109 33.0178C26.5401 33.0369 24.8685 33.0215 23.1977 33.0259C22.7811 33.0274 22.456 32.8787 22.177 32.5615C21.2728 31.5337 19.9673 31.4473 18.9869 32.4025C18.5008 32.8765 17.9809 33.0559 17.3249 33.034C16.4558 33.0047 15.5852 33.0237 14.7154 33.0281C14.3215 33.031 13.9195 32.9812 13.918 32.4963C13.9166 32.0084 14.3002 31.8663 14.7337 31.8656C15.6269 31.8634 16.5195 31.8656 17.4127 31.8641C17.595 31.8641 17.7803 31.8721 17.9604 31.848C18.3228 31.7982 18.5659 31.5909 18.5542 31.2143C18.5418 30.8085 18.2489 30.6964 17.8865 30.6972C16.7186 30.6994 15.5515 30.6972 14.3837 30.6964C13.9034 30.6964 13.4223 30.6906 12.9413 30.6979C12.5225 30.7045 12.0876 30.6547 12.1154 30.1287C12.1403 29.657 12.5386 29.5427 12.975 29.5449C14.9211 29.5537 16.8665 29.5507 18.8127 29.5493C19.1099 29.5493 19.4094 29.5581 19.7045 29.5258C20.0852 29.4833 20.3715 29.2892 20.3415 28.8651C20.3129 28.4607 20.0112 28.367 19.6517 28.3684C18.1413 28.3728 16.63 28.3684 15.1188 28.3699C14.7425 28.3706 14.3976 28.2922 14.3954 27.8373C14.3932 27.4154 14.7029 27.2557 15.0837 27.2249C15.2433 27.2125 15.4044 27.2205 15.5647 27.2205C17.0525 27.2205 18.5403 27.2213 20.0288 27.2213C20.1657 27.2213 20.3034 27.2191 20.4403 27.2213C20.8942 27.2301 21.3372 27.1055 21.3475 26.6015C21.3599 26.0345 20.8672 26.0404 20.4388 26.0426C19.569 26.047 18.6992 26.0433 17.8293 26.0433C17.4479 26.0433 17.1096 25.943 17.1308 25.4888C17.1499 25.0749 17.4574 24.9086 17.8462 24.9072C19.1736 24.9035 20.5018 24.9079 21.8292 24.905C22.0108 24.9042 22.2034 24.916 22.3703 24.8618C22.68 24.7607 22.8799 24.5292 22.844 24.19C22.8089 23.8626 22.5607 23.7293 22.2583 23.7249C21.5715 23.7139 20.8847 23.7146 20.1979 23.7197C19.8245 23.7219 19.4628 23.6648 19.457 23.2091C19.4519 22.7572 19.7733 22.585 20.1965 22.5858H24.8663C26.3087 22.5865 27.7511 22.5806 29.1935 22.588C30.3386 22.5938 30.8131 23.1564 30.6908 24.2743Z" fill="white"></path><path d="M37.3458 27.5708C37.3231 27.5312 37.2982 27.4932 37.2748 27.4536C35.7987 24.9849 36.6964 25.5065 33.9397 25.4413C33.2895 25.4413 32.7404 25.4523 32.192 25.4384C31.5279 25.4223 31.1875 25.7058 31.1223 26.3936C30.9414 28.3048 30.7284 30.2123 30.5219 32.1206C30.4597 32.6913 30.7042 32.9799 31.2731 33.029C31.7337 33.0678 32.0653 32.955 32.3926 32.5631C33.2778 31.5038 34.8527 31.4752 35.6347 32.44C36.0894 33.0011 37.0061 33.2289 37.6658 32.9469C37.9916 32.8077 38.1446 32.5557 38.1974 32.2107C38.4492 30.5615 38.1654 29.0149 37.3458 27.5708ZM36.5939 29.0044C36.0704 29.0212 35.5454 29.0088 35.0212 29.008C34.5196 29.008 34.0181 29 33.5165 29.011C33.0801 29.0205 32.8868 28.8403 32.941 28.3905C33.0164 27.7569 33.0692 27.1203 33.1351 26.4852C33.1746 26.1057 33.3789 25.9094 33.7713 25.9329C33.8167 25.9358 33.8628 25.9299 33.9082 25.9329C34.5152 25.9856 35.3118 25.6545 35.6918 26.0603C36.3127 26.724 36.7161 27.6104 37.1262 28.4447C37.3283 28.8549 36.9409 28.9927 36.5939 29.0037V29.0044Z" fill="white"></path><path d="M36.6585 24.582C36.2258 25.1109 35.7008 24.7768 35.1949 24.8274C35.9593 23.9366 36.5333 22.988 36.7881 21.865C37.4925 18.7525 35.1363 15.9175 31.7353 15.7637C27.9895 15.5937 24.7848 18.4792 24.7489 21.6247C24.7416 22.2445 24.2678 21.9514 23.9889 21.9961C23.5745 22.0621 23.6389 21.7471 23.6587 21.4995C23.8395 19.2953 24.9063 17.576 26.6855 16.3439C29.344 14.5023 32.201 14.1052 35.0961 15.7227C38.2906 17.5079 38.9825 21.7456 36.6585 24.582Z" fill="white"></path><path d="M20.4827 32.3551C19.4745 32.3646 18.6208 33.1638 18.6391 34.0802C18.6552 34.8772 19.3215 35.4683 20.1986 35.4647C21.2083 35.4596 22.0869 34.6713 22.0855 33.7703C22.0855 32.9579 21.3921 32.347 20.4827 32.3551ZM20.3048 34.6963C19.8406 34.645 19.506 34.4479 19.5133 33.9842C19.5221 33.4414 19.8875 33.1799 20.4051 33.1557C20.892 33.133 21.22 33.3865 21.2003 33.8758C21.1776 34.4157 20.7705 34.6281 20.3048 34.6963Z" fill="white"></path><path d="M34.0697 32.3606C33.0593 32.3533 32.1675 33.1591 32.1866 34.0609C32.2034 34.8637 32.8726 35.4703 33.7417 35.4703C34.7646 35.4695 35.6198 34.6872 35.6117 33.7583C35.6051 32.9437 34.9681 32.3672 34.0697 32.3606ZM34.7412 33.8638C34.7185 34.4103 34.3341 34.6271 33.8472 34.6967C33.4057 34.6528 33.0967 34.4704 33.0696 33.9979C33.0425 33.5195 33.4789 33.1349 34.0134 33.1547C34.4651 33.1716 34.7609 33.3987 34.7412 33.8638Z" fill="white"></path><path d="M15.7764 25.8947C13.7622 25.91 11.748 25.902 9.73376 25.8983C9.41892 25.7928 9.38744 25.5482 9.47969 25.2911C9.58366 25.0017 9.83846 24.8794 10.1328 24.875C10.8196 24.864 11.5064 24.8662 12.1939 24.8662C13.2929 24.8654 14.3919 24.8669 15.4916 24.8662C15.7896 24.8662 16.0569 24.9468 16.1389 25.261C16.2172 25.5628 16.0942 25.7958 15.7764 25.8947Z" fill="white"></path><path d="M17.6681 23.697C16.3684 23.7212 15.0681 23.7161 13.7677 23.7051C13.447 23.7029 13.2559 23.4941 13.275 23.171C13.2977 22.7894 13.5539 22.6033 13.9149 22.5945C14.5534 22.5792 15.1918 22.5901 15.831 22.5901V22.5872C16.4241 22.5872 17.0172 22.5909 17.6102 22.5857C17.9492 22.5828 18.2187 22.7037 18.2421 23.0619C18.2663 23.4326 18.0298 23.6904 17.6681 23.697Z" fill="white"></path><path d="M13.3269 27.7212C13.3357 28.0736 13.1087 28.2889 12.7961 28.3366C12.4622 28.3878 12.1144 28.3483 11.7732 28.3483V28.3703C11.5221 28.3703 11.2702 28.3791 11.0198 28.3673C10.7174 28.3541 10.4743 28.2216 10.4399 27.8985C10.4033 27.5542 10.6061 27.2927 10.9319 27.27C11.5887 27.2238 12.2521 27.2304 12.911 27.2531C13.16 27.2612 13.3203 27.4634 13.3269 27.7212Z" fill="white"></path><path d="M15.7763 25.8956C15.5772 26.0567 15.3407 26.0018 15.1174 26.0018C13.5424 26.0054 11.9675 26.0054 10.3926 25.9996C10.1708 25.9989 9.9328 26.0633 9.73364 25.8992C9.84713 25.752 10.0104 25.7659 10.1686 25.7659H15.34C15.4974 25.7659 15.6614 25.7498 15.7763 25.8956Z" fill="white"></path><path d="M28.3269 19.5697L29.8937 21.1364L34.5939 18.0029" stroke="white" stroke-linecap="round"></path></g><defs><clipPath id="clip0_178_28"><rect width="48" height="49" fill="white"></rect></clipPath></defs></svg>