<svg width="49" height="49" viewBox="0 0 49 49" fill="none" xmlns="http://www.w3.org/2000/svg"><path d="M38.2252 0.701904H10.7086C5.18577 0.701904 0.708618 5.17906 0.708618 10.7019V38.2185C0.708618 43.7414 5.18577 48.2185 10.7086 48.2185H38.2252C43.7481 48.2185 48.2252 43.7414 48.2252 38.2185V10.7019C48.2252 5.17906 43.7481 0.701904 38.2252 0.701904Z" fill="#D25C5C"></path><path d="M23.7026 23.9496C23.6963 28.5005 23.6972 33.0522 23.6963 37.604C23.6963 37.6446 23.6793 37.6852 23.6623 37.7656C22.3844 37.0719 21.1235 36.3884 19.8643 35.704C17.5861 34.4663 15.3141 33.2185 13.0296 31.9946C12.5192 31.7212 12.2962 31.3518 12.298 30.7532C12.3123 26.5867 12.3051 22.4201 12.3051 18.2526V17.8157C12.6634 17.8822 12.9302 18.0835 13.2177 18.2285C14.0586 18.6553 14.8879 19.1069 15.7297 19.5318C15.9455 19.6408 16.0216 19.7627 16.0189 20.0204C16.0046 21.8345 16.0109 23.6494 16.0118 25.4635C16.0127 26.183 16.2204 26.377 16.8813 26.1895C17.3264 26.0629 17.6551 26.1359 17.9425 26.5155C18.1342 26.7686 18.3733 26.9829 18.5864 27.2194C18.7646 27.4179 18.9697 27.5205 19.2231 27.4032C19.4604 27.2933 19.5034 27.0743 19.5025 26.825C19.4981 25.2104 19.5133 23.5959 19.4927 21.9823C19.4864 21.5426 19.5984 21.5463 19.9252 21.7209C21.1002 22.3508 22.2832 22.9632 23.4697 23.57C23.6417 23.6578 23.7035 23.7511 23.7026 23.9496Z" fill="#F7F9FA"></path><path d="M12.8756 17.2701C12.8264 17.2442 12.7879 17.1971 12.7153 17.1353C14.244 16.3067 15.7449 15.4939 17.244 14.6793C19.2984 13.5626 21.3545 12.4505 23.4017 11.3199C23.8396 11.0789 24.2328 11.065 24.668 11.3098C25.7247 11.9018 26.7922 12.4736 27.9027 13.0795C26.1949 13.9718 24.5372 14.8391 22.8787 15.7054C20.8074 16.788 18.7351 17.8677 16.6637 18.9502C16.5079 19.0315 16.3816 19.1165 16.1784 19.0066C15.084 18.4154 13.9771 17.8483 12.8756 17.2701Z" fill="#F7F9FA"></path><path d="M24.565 22.8361C24.1951 23.031 23.8879 23.0347 23.519 22.8361C22.3351 22.1951 21.1351 21.5837 19.9324 20.9574C20.0291 20.7967 20.1786 20.7635 20.3022 20.6988C23.8584 18.8404 27.4181 16.9894 30.9689 15.1218C31.2447 14.9768 31.4417 14.9897 31.7023 15.1347C32.905 15.8062 34.1194 16.4565 35.4224 17.164C35.0409 17.3635 34.7391 17.5205 34.4364 17.6775C31.1453 19.3955 27.8516 21.1089 24.565 22.837V22.8361Z" fill="#F7F9FA"></path><path d="M30.6501 34.0732C30.7736 34.2081 30.8292 34.2949 30.6187 34.4085C28.5626 35.5178 26.5109 36.6345 24.3858 37.7881V33.6585C24.3858 30.5513 24.3993 27.4432 24.3724 24.3361C24.3688 23.8558 24.4978 23.6267 24.9178 23.4106C28.3951 21.6224 31.8572 19.8037 35.3238 17.9934C35.6271 17.8351 35.7791 17.9284 35.7797 18.2732C35.7806 20.95 35.7716 23.6276 35.7895 26.3035C35.7922 26.6905 35.6883 26.7459 35.348 26.6868C33.9716 26.4475 32.6131 26.5648 31.285 26.9999C30.0501 27.4044 29.3874 28.5331 29.5584 29.8604C29.673 30.7444 29.7778 31.6283 29.9533 32.503C30.0689 33.0812 30.2453 33.6326 30.6501 34.0732Z" fill="#F7F9FA"></path><path d="M37.7902 29.4656C37.6738 30.5342 37.5538 31.602 37.3066 32.6512C37.2001 33.101 36.9851 33.4724 36.6744 33.7956C36.146 34.3434 35.555 34.8135 34.9245 35.2245C34.3173 35.6198 33.6842 35.6014 33.0636 35.2291C33.0117 35.1987 32.9633 35.1617 32.9149 35.1257C30.5606 33.3689 30.7504 33.3643 30.3161 30.5204C30.2695 30.2165 30.2292 29.9108 30.2113 29.6041C30.154 28.6481 30.6277 27.9295 31.5143 27.6524C31.9128 27.5277 32.3212 27.4289 32.7313 27.3596C33.1576 27.2885 33.5884 27.2312 34.0236 27.2562C34.9532 27.2765 35.863 27.4077 36.7389 27.7485C37.0281 27.8612 37.1051 27.9665 36.8427 28.2426C35.9347 29.1986 35.0472 30.1758 34.166 31.1568C33.9018 31.4514 33.6797 31.4736 33.4308 31.1623C33.3743 31.0921 33.3081 31.0265 33.2382 30.9711C33.0914 30.8538 32.9382 30.8353 32.7949 30.9776C32.6552 31.118 32.6508 31.2888 32.7618 31.4375C33.3672 32.2494 34.0666 32.2928 34.6406 31.6491C35.5075 30.6746 36.4093 29.7334 37.2753 28.7571C37.5493 28.4486 37.6416 28.5752 37.7105 28.8753C37.7553 29.0684 37.8117 29.2744 37.7902 29.4656Z" fill="#F7F9FA"></path><path d="M23.7026 23.9496C23.6963 28.5005 23.6972 33.0522 23.6963 37.604C23.6963 37.6446 23.6793 37.6852 23.6623 37.7656C22.3844 37.0719 21.1235 36.3884 19.8643 35.704C17.5861 34.4663 15.3141 33.2185 13.0296 31.9946C12.5192 31.7212 12.2962 31.3518 12.298 30.7532C12.3123 26.5867 12.3051 22.4201 12.3051 18.2526V17.8157C12.6634 17.8822 12.9302 18.0835 13.2177 18.2285C14.0586 18.6553 14.8879 19.1069 15.7297 19.5318C15.9455 19.6408 16.0216 19.7627 16.0189 20.0204C16.0046 21.8345 16.0109 23.6494 16.0118 25.4635C16.0127 26.183 16.2204 26.377 16.8813 26.1895C17.3264 26.0629 17.6551 26.1359 17.9425 26.5155C18.1342 26.7686 18.3733 26.9829 18.5864 27.2194C18.7646 27.4179 18.9697 27.5205 19.2231 27.4032C19.4604 27.2933 19.5034 27.0743 19.5025 26.825C19.4981 25.2104 19.5133 23.5959 19.4927 21.9823C19.4864 21.5426 19.5984 21.5463 19.9252 21.7209C21.1002 22.3508 22.2832 22.9632 23.4697 23.57C23.6417 23.6578 23.7035 23.7511 23.7026 23.9496Z" fill="white" fill-opacity="0.89"></path><path d="M35.7895 26.3035C35.7922 26.6905 35.6883 26.7459 35.348 26.6868C33.9716 26.4475 32.6131 26.5648 31.285 26.9999C30.0501 27.4044 29.3874 28.5331 29.5584 29.8604C29.673 30.7444 29.7778 31.6283 29.9533 32.503C30.0689 33.0812 30.2453 33.6326 30.6501 34.0732C30.7736 34.2081 30.8292 34.2949 30.6187 34.4085C28.5626 35.5178 26.5109 36.6345 24.3858 37.7881V33.6585C24.3858 30.5513 24.3993 27.4432 24.3724 24.3361C24.3688 23.8558 24.4978 23.6267 24.9178 23.4106C28.3951 21.6224 31.8572 19.8037 35.3238 17.9934C35.6271 17.8351 35.7791 17.9284 35.7797 18.2732C35.7806 20.95 35.7716 23.6276 35.7895 26.3035Z" fill="white" fill-opacity="0.89"></path><path d="M35.4224 17.1631C35.0409 17.3626 34.7391 17.5196 34.4364 17.6766C31.1453 19.3946 27.8516 21.108 24.565 22.8361C24.1951 23.031 23.8879 23.0347 23.519 22.8361C22.3351 22.1951 21.1351 21.5837 19.9324 20.9574C20.0291 20.7967 20.1786 20.7635 20.3022 20.6988C23.8584 18.8404 27.4181 16.9894 30.9689 15.1218C31.2447 14.9768 31.4417 14.9897 31.7023 15.1347C32.905 15.8062 34.1194 16.4565 35.4224 17.164V17.1631Z" fill="white" fill-opacity="0.89"></path><path d="M27.9027 13.0795C26.1949 13.9718 24.5372 14.8391 22.8787 15.7054C20.8074 16.788 18.7351 17.8677 16.6637 18.9502C16.5079 19.0315 16.3816 19.1165 16.1784 19.0066C15.084 18.4154 13.9771 17.8483 12.8756 17.2701C12.8264 17.2442 12.7879 17.1971 12.7153 17.1353C14.244 16.3067 15.7449 15.4939 17.244 14.6793C19.2984 13.5626 21.3545 12.4505 23.4017 11.3199C23.8396 11.0789 24.2328 11.065 24.668 11.3098C25.7247 11.9018 26.7922 12.4736 27.9027 13.0795Z" fill="white" fill-opacity="0.89"></path><path d="M37.7902 29.4656C37.6738 30.5342 37.5538 31.602 37.3066 32.6512C37.2001 33.101 36.9851 33.4724 36.6744 33.7956C36.146 34.3434 35.555 34.8135 34.9245 35.2245C34.3173 35.6198 33.6842 35.6014 33.0636 35.2291C33.0117 35.1987 32.9633 35.1617 32.9149 35.1257C30.5606 33.3689 30.7504 33.3643 30.3161 30.5204C30.2695 30.2165 30.2292 29.9108 30.2113 29.6041C30.154 28.6481 30.6277 27.9295 31.5143 27.6524C31.9128 27.5277 32.3212 27.4289 32.7313 27.3596C33.1576 27.2885 33.5884 27.2312 34.0236 27.2562C34.9532 27.2765 35.863 27.4077 36.7389 27.7485C37.0281 27.8612 37.1051 27.9665 36.8427 28.2426C35.9347 29.1986 35.0472 30.1758 34.166 31.1568C33.9018 31.4514 33.6797 31.4736 33.4308 31.1623C33.3743 31.0921 33.3081 31.0265 33.2382 30.9711C33.0914 30.8538 32.9382 30.8353 32.7949 30.9776C32.6552 31.118 32.6508 31.2888 32.7618 31.4375C33.3672 32.2494 34.0666 32.2928 34.6406 31.6491C35.5075 30.6746 36.4093 29.7334 37.2753 28.7571C37.5493 28.4486 37.6416 28.5752 37.7105 28.8753C37.7553 29.0684 37.8117 29.2744 37.7902 29.4656Z" fill="white" fill-opacity="0.89"></path></svg>