<svg width="66" height="66" viewBox="0 0 66 66" fill="none" xmlns="http://www.w3.org/2000/svg"><circle cx="33" cy="33" r="33" fill="#3ED400"></circle><path d="M47.1126 16.9042C46.5487 14.8928 45.5207 13.0438 44.1121 11.508C43.2612 10.6105 42.2961 9.83014 41.2418 9.18731C40.5558 8.76102 39.8697 8.25155 39.0762 8.05608C37.8216 7.73714 36.5103 7.71791 35.2471 7.99993C33.9473 8.30353 32.8045 9.01471 31.7196 9.77579L31.2877 10.0856C30.0956 10.9397 29.0165 11.9432 28.0765 13.0717C25.3073 16.4445 23.3176 20.3943 22.2511 24.6357C21.8378 26.2264 21.2406 26.345 19.9078 25.7107C16.5539 24.1116 13.4728 22.2588 11.9436 18.6031C11.6709 17.9523 11.2865 17.2847 10.3897 17.6611C9.42464 18.0666 9.47215 18.8173 9.85858 19.6117C10.1775 20.3284 10.5434 21.0231 10.9538 21.6911C13.0203 24.7895 16.0352 26.6569 19.385 27.9794C20.8583 28.5596 21.2819 29.3082 21.1476 30.8907C20.8397 34.5443 20.91 38.2187 21.5961 41.8391C22.5776 47.0169 23.8568 52.1033 27.8719 55.89C31.9242 59.7121 37.5305 58.6682 40.0185 53.6733C40.9463 51.8018 41.6717 49.8429 42.5706 47.9589C42.9983 47.0585 43.205 46.1831 42.1717 45.7464C41.1798 45.3305 40.8637 46.3598 40.5041 46.9941C39.2642 49.1879 38.4645 51.623 36.9168 53.6484C35.0569 56.0876 32.5999 56.4619 30.0665 54.7505C28.6571 53.796 27.6673 52.4755 26.9502 50.9617C24.2639 45.2681 23.1046 39.2335 23.2905 32.9577C23.3918 29.537 23.4745 29.6056 26.9213 30.219C32.8686 31.2795 38.7001 31.3627 43.796 27.3618C47.2511 24.6502 48.3298 21.1359 47.1126 16.9042ZM41.7998 25.8896C38.9832 27.8401 35.8071 28.518 32.3623 28.36C30.1594 28.491 27.9607 27.9961 25.7496 27.576C24.5738 27.3514 23.9559 26.9709 24.3816 25.4966C25.7786 20.6348 27.9525 16.2533 31.6762 12.7785C35.6418 9.07917 39.5288 9.47843 42.9859 13.8474C46.4431 18.2163 45.9554 23.0074 41.7998 25.8896V25.8896Z" fill="white"></path></svg>